<svg width="126" height="17" viewBox="0 0 126 17" fill="none" xmlns="http://www.w3.org/2000/svg">
<path d="M11.7451 1.45302C12.6605 1.45565 13.5377 1.80674 14.185 2.42962C14.8323 3.05249 15.1971 3.89654 15.1999 4.77742V11.4255C15.1971 12.3064 14.8323 13.1504 14.185 13.7733C13.5377 14.3962 12.6605 14.7473 11.7451 14.7499H4.8364C3.92099 14.7473 3.04386 14.3962 2.39656 13.7733C1.74926 13.1504 1.3844 12.3064 1.38167 11.4255V4.77742C1.3844 3.89654 1.74926 3.05249 2.39656 2.42962C3.04386 1.80674 3.92099 1.45565 4.8364 1.45302H11.7451ZM11.7451 0.123468H4.8364C2.17633 0.123468 0 2.21769 0 4.77742V11.4255C0 13.9852 2.17633 16.0795 4.8364 16.0795H11.7451C14.4052 16.0795 16.5815 13.9852 16.5815 11.4255V4.77742C16.5815 2.21769 14.4052 0.123468 11.7451 0.123468Z" fill="#1C1F35"/>
<path d="M12.7817 4.77803C12.5767 4.77803 12.3764 4.71955 12.2059 4.60997C12.0355 4.50039 11.9027 4.34464 11.8242 4.16242C11.7458 3.98019 11.7253 3.77968 11.7653 3.58623C11.8052 3.39278 11.9039 3.21509 12.0489 3.07562C12.1938 2.93615 12.3785 2.84117 12.5795 2.8027C12.7805 2.76422 12.9889 2.78397 13.1783 2.85945C13.3676 2.93492 13.5295 3.06274 13.6434 3.22674C13.7573 3.39074 13.818 3.58355 13.818 3.78078C13.8183 3.91182 13.7917 4.04163 13.7397 4.16275C13.6878 4.28387 13.6114 4.39392 13.5151 4.48657C13.4189 4.57923 13.3045 4.65268 13.1786 4.7027C13.0528 4.75271 12.9179 4.77832 12.7817 4.77803ZM8.29098 5.44263C8.83759 5.44263 9.37193 5.5986 9.82642 5.89083C10.2809 6.18305 10.6351 6.5984 10.8443 7.08435C11.0535 7.57031 11.1082 8.10503 11.0016 8.62092C10.8949 9.1368 10.6317 9.61067 10.2452 9.9826C9.85871 10.3545 9.36626 10.6078 8.83015 10.7104C8.29405 10.8131 7.73836 10.7604 7.23335 10.5591C6.72835 10.3578 6.29672 10.0169 5.99304 9.5796C5.68936 9.14225 5.52727 8.62807 5.52727 8.10208C5.52805 7.39698 5.81948 6.72098 6.33761 6.2224C6.85573 5.72382 7.55824 5.44338 8.29098 5.44263ZM8.29098 4.11308C7.4711 4.11308 6.66963 4.34703 5.98793 4.78535C5.30622 5.22367 4.7749 5.84666 4.46114 6.57556C4.14739 7.30445 4.0653 8.10651 4.22525 8.8803C4.3852 9.65409 4.78001 10.3649 5.35975 10.9227C5.93949 11.4806 6.67813 11.8605 7.48226 12.0144C8.28638 12.1684 9.11988 12.0894 9.87735 11.7874C10.6348 11.4855 11.2822 10.9742 11.7377 10.3183C12.1932 9.66227 12.4364 8.89103 12.4364 8.10208C12.4364 7.04413 11.9996 6.02952 11.2222 5.28143C10.4448 4.53335 9.3904 4.11308 8.29098 4.11308Z" fill="#1C1F35"/>
<path fill-rule="evenodd" clip-rule="evenodd" d="M53.7444 8.14962C53.7444 3.71827 49.9084 0.12518 45.1773 0.12518C40.4463 0.12518 36.6103 3.71827 36.6103 8.14962C36.6103 12.1547 39.7426 15.4744 43.8387 16.077V10.4699H41.6629V8.14962H43.8387V6.38173C43.8387 4.37097 45.1181 3.25937 47.0747 3.25937C48.0121 3.25937 48.9928 3.41627 48.9928 3.41627V5.39122H47.9119C46.8483 5.39122 46.5156 6.00953 46.5156 6.64504V8.14962H48.8914L48.512 10.4699H46.5159V16.0777C50.6121 15.4755 53.7444 12.1557 53.7444 8.14962Z" fill="#1C1F35"/>
<path d="M89.7683 3.22315C89.1683 3.48367 88.5335 3.6553 87.8839 3.73263C88.5666 3.33316 89.08 2.69854 89.3278 1.94778C88.6824 2.32492 87.9774 2.58955 87.2431 2.73032C86.9339 2.40649 86.562 2.14887 86.1501 1.97313C85.7381 1.79739 85.2947 1.70719 84.8468 1.70802C83.0334 1.70802 81.5658 3.15322 81.5658 4.93474C81.5645 5.18254 81.593 5.42961 81.6505 5.67066C80.3501 5.60974 79.0767 5.27825 77.9119 4.6974C76.7471 4.11655 75.7164 3.29912 74.8858 2.29742C74.5945 2.7883 74.4403 3.34837 74.4396 3.91911C74.4396 5.03797 75.0238 6.02696 75.9059 6.60637C75.3833 6.59398 74.8714 6.45576 74.4136 6.20345V6.24341C74.4136 7.80848 75.5466 9.11049 77.0462 9.40686C76.7642 9.48198 76.4736 9.52004 76.1818 9.52008C75.9747 9.52044 75.7681 9.50036 75.565 9.46014C75.9818 10.7422 77.1951 11.6746 78.6324 11.7012C77.4645 12.6006 76.0307 13.0867 74.5563 13.0831C74.2946 13.0827 74.0331 13.0672 73.7732 13.0365C75.2731 13.9936 77.0167 14.4999 78.7963 14.495C84.8398 14.495 88.1415 9.57669 88.1415 5.31102C88.1415 5.17117 88.1378 5.03131 88.1312 4.89478C88.772 4.43926 89.3264 3.87319 89.7683 3.22315Z" fill="#1C1F35"/>
<path d="M124.704 0H111.182C110.443 0 109.797 0.531658 109.797 1.26188V14.8145C109.797 15.5487 110.443 16.2029 111.182 16.2029H124.7C125.443 16.2029 126 15.5443 126 14.8145V1.26188C126.004 0.531658 125.443 0 124.704 0ZM114.82 13.5059H112.498V6.28876H114.82V13.5059ZM113.739 5.19145H113.723C112.98 5.19145 112.499 4.63845 112.499 3.94621C112.499 3.24131 112.992 2.70133 113.752 2.70133C114.511 2.70133 114.976 3.23733 114.993 3.94621C114.992 4.63845 114.511 5.19145 113.739 5.19145ZM123.303 13.5059H120.982V9.55973C120.982 8.61431 120.644 7.96837 119.804 7.96837C119.163 7.96837 118.783 8.40237 118.614 8.82517C118.551 8.97707 118.534 9.18395 118.534 9.39516V13.5059H116.212V6.28876H118.534V7.29312C118.871 6.8121 119.399 6.11986 120.627 6.11986C122.151 6.11986 123.303 7.12422 123.303 9.28956L123.303 13.5059Z" fill="#1C1F35"/>
</svg>
