<svg width="56" height="58" viewBox="0 0 56 58" fill="none" xmlns="http://www.w3.org/2000/svg">
<path d="M39.0802 15.5671V5.48994H44.7403C47.607 5.48994 50.1906 7.21871 51.2842 9.86855L53.3477 14.8685C53.4851 15.2014 53.2404 15.5671 52.8803 15.5671H39.0802Z" fill="#FFD550" stroke="#1C1F35" stroke-width="2"/>
<path d="M1.01132 22.2857H39.0804" stroke="#1C1F35" stroke-width="2" stroke-linecap="round" stroke-linejoin="round"/>
<path d="M42.4393 40.1997C46.1496 40.1997 49.1574 37.1919 49.1574 33.4816C49.1574 29.7713 46.1496 26.7635 42.4393 26.7635C38.729 26.7635 35.7213 29.7713 35.7213 33.4816C35.7213 37.1919 38.729 40.1997 42.4393 40.1997Z" stroke="#1C1F35" stroke-width="2" stroke-linecap="round" stroke-linejoin="round"/>
<path d="M13.3282 40.1997C17.0385 40.1997 20.0463 37.1919 20.0463 33.4816C20.0463 29.7713 17.0385 26.7635 13.3282 26.7635C9.61793 26.7635 6.61015 29.7713 6.61015 33.4816C6.61015 37.1919 9.61793 40.1997 13.3282 40.1997Z" fill="#FFD550" stroke="#1C1F35" stroke-width="2" stroke-linecap="round" stroke-linejoin="round"/>
<path d="M35.7213 32.3624H20.0457" stroke="#1C1F35" stroke-width="2" stroke-linecap="round" stroke-linejoin="round"/>
<path d="M6.55374 32.3624H2.91478C2.40995 32.3624 1.9258 32.1559 1.56883 31.7884C1.21187 31.421 1.01132 30.9226 1.01132 30.4029V2.97076C1.01132 2.45109 1.21187 1.9527 1.56883 1.58523C1.9258 1.21776 2.40995 1.01132 2.91478 1.01132H39.0804V27.2678" stroke="#1C1F35" stroke-width="2" stroke-linecap="round" stroke-linejoin="round"/>
<path d="M39.0802 15.5669H54.7557V30.4959C54.7557 30.9909 54.5492 31.4655 54.1818 31.8155C53.8143 32.1655 53.3159 32.3621 52.7962 32.3621H49.0173" stroke="#1C1F35" stroke-width="2" stroke-linecap="round" stroke-linejoin="round"/>
<path d="M5.49018 14.8681L5.49018 5.48994" stroke="#1C1F35" stroke-width="2" stroke-linecap="round" stroke-linejoin="round"/>
<path d="M25.6438 17.8068L35.022 17.8068" stroke="#1C1F35" stroke-width="2" stroke-linecap="round" stroke-linejoin="round"/>
<path d="M25.6444 36.7328L29.0035 36.7328" stroke="#1C1F35" stroke-width="2" stroke-linecap="round" stroke-linejoin="round"/>
</svg>
