<svg width="121" height="22" viewBox="0 0 121 22" fill="none" xmlns="http://www.w3.org/2000/svg">
<path d="M20.1401 0L1.8705 0C0.872216 0 0 0.718296 0 1.70485L0 20.015C0 21.007 0.872216 21.8909 1.8705 21.8909L20.1348 21.8909C21.1384 21.8909 21.8909 21.0011 21.8909 20.015L21.8909 1.70485C21.8968 0.718296 21.1384 0 20.1401 0ZM6.78569 18.2472L3.64963 18.2472L3.64963 8.49641L6.78569 8.49641L6.78569 18.2472ZM5.32614 7.01389H5.30366C4.3 7.01389 3.65011 6.26676 3.65011 5.33151C3.65011 4.37916 4.3171 3.64963 5.34324 3.64963C6.36938 3.64963 6.99727 4.37378 7.01975 5.33151C7.01926 6.26676 6.36938 7.01389 5.32614 7.01389ZM18.2471 18.2472L15.1111 18.2472L15.1111 12.9156C15.1111 11.6383 14.6547 10.7656 13.5201 10.7656C12.6532 10.7656 12.1402 11.352 11.912 11.9232C11.8265 12.1284 11.8035 12.4079 11.8035 12.6933L11.8035 18.2472L8.66743 18.2472L8.66743 8.49641L11.8035 8.49641L11.8035 9.85335C12.2599 9.20347 12.9728 8.26822 14.6317 8.26822C16.6904 8.26822 18.2476 9.62516 18.2476 12.5506L18.2471 18.2472Z" fill="white"/>
<path d="M70.6762 6.66219C69.8656 7.01416 69.0079 7.24605 68.1303 7.35052C69.0526 6.81082 69.7462 5.95341 70.0811 4.9391C69.209 5.44865 68.2566 5.80617 67.2645 5.99635C66.8468 5.55884 66.3443 5.21079 65.7878 4.97336C65.2312 4.73593 64.6322 4.61406 64.027 4.61518C61.577 4.61518 59.5942 6.56771 59.5942 8.97463C59.5925 9.30942 59.6309 9.64322 59.7086 9.96889C57.9517 9.88659 56.2314 9.43873 54.6576 8.65397C53.0839 7.86921 51.6914 6.76483 50.5693 5.41149C50.1756 6.07468 49.9674 6.83137 49.9664 7.60246C49.9664 9.11409 50.7557 10.4503 51.9474 11.2331C51.2413 11.2163 50.5497 11.0296 49.9313 10.6887V10.7427C49.9313 12.8572 51.462 14.6163 53.488 15.0167C53.107 15.1182 52.7144 15.1696 52.3201 15.1696C52.0404 15.1701 51.7612 15.143 51.4868 15.0887C52.05 16.8207 53.6892 18.0804 55.631 18.1164C54.0532 19.3315 52.116 19.9883 50.124 19.9835C49.7704 19.9829 49.4172 19.9619 49.066 19.9205C51.0925 21.2136 53.4481 21.8976 55.8525 21.891C64.0176 21.891 68.4783 15.2461 68.4783 9.48301C68.4783 9.29405 68.4733 9.1051 68.4643 8.92064C69.3301 8.30522 70.0792 7.54042 70.6762 6.66219Z" fill="white"/>
<path fill-rule="evenodd" clip-rule="evenodd" d="M121 11.18C121 5.19303 115.817 0.338607 109.425 0.338607C103.034 0.338607 97.8509 5.19303 97.8509 11.18C97.8509 16.591 102.083 21.0762 107.617 21.8902L107.617 14.3148L104.677 14.3148V11.18L107.617 11.18V8.79151C107.617 6.07487 109.345 4.57304 111.989 4.57304C113.255 4.57304 114.58 4.78503 114.58 4.78503V7.45327L113.12 7.45327C111.683 7.45327 111.233 8.28864 111.233 9.14724V11.18L114.443 11.18L113.931 14.3148L111.234 14.3148L111.234 21.8912C116.768 21.0776 121 16.5925 121 11.18Z" fill="white"/>
</svg>
