<svg width="164" height="22" viewBox="0 0 164 22" fill="none" xmlns="http://www.w3.org/2000/svg">
<path d="M20.0118 0L1.85859 0C0.86666 0 0 0.71372 0 1.69399L0 19.8876C0 20.8732 0.86666 21.7515 1.85859 21.7515L20.0065 21.7515C21.0038 21.7515 21.7515 20.8673 21.7515 19.8876L21.7515 1.69399C21.7573 0.71372 21.0038 0 20.0118 0ZM6.74247 18.1309L3.62638 18.1309L3.62638 8.44229L6.74247 8.44229L6.74247 18.1309ZM5.29221 6.96921H5.26988C4.27261 6.96921 3.62686 6.22685 3.62686 5.29755C3.62686 4.35127 4.28961 3.62638 5.30921 3.62638C6.32881 3.62638 6.9527 4.34593 6.97504 5.29755C6.97455 6.22685 6.32881 6.96921 5.29221 6.96921ZM18.1309 18.1309L15.0148 18.1309L15.0148 12.8334C15.0148 11.5642 14.5614 10.6971 13.434 10.6971C12.5726 10.6971 12.0628 11.2797 11.8361 11.8473C11.7511 12.0512 11.7283 12.3289 11.7283 12.6125L11.7283 18.1309L8.61223 18.1309L8.61223 8.44229L11.7283 8.44229L11.7283 9.79059C12.1818 9.14485 12.8902 8.21555 14.5385 8.21555C16.584 8.21555 18.1314 9.56385 18.1314 12.4707L18.1309 18.1309Z" fill="#1C1F35"/>
<path d="M68.3929 2.04128C67.5846 2.39227 66.7293 2.62351 65.8541 2.72769C66.7739 2.1895 67.4655 1.33449 67.7994 0.323023C66.9298 0.83114 65.9801 1.18766 64.9908 1.37731C64.5742 0.941027 64.0732 0.593954 63.5182 0.357184C62.9632 0.120414 62.3658 -0.00110692 61.7623 7.59733e-06C59.3191 7.59733e-06 57.342 1.94707 57.342 4.34725C57.3402 4.68111 57.3785 5.01397 57.456 5.33873C55.704 5.25666 53.9885 4.81005 52.4192 4.02749C50.8498 3.24493 49.4613 2.14364 48.3422 0.794086C47.9497 1.45542 47.7421 2.20999 47.7411 2.97892C47.7411 4.48633 48.5281 5.81877 49.7165 6.59939C49.0124 6.58269 48.3228 6.39647 47.7061 6.05654V6.11038C47.7061 8.21895 49.2325 9.9731 51.2528 10.3724C50.8729 10.4736 50.4814 10.5249 50.0882 10.5249C49.8092 10.5254 49.5309 10.4984 49.2572 10.4442C49.8189 12.1714 51.4535 13.4276 53.3898 13.4635C51.8164 14.6752 49.8847 15.3301 47.8982 15.3253C47.5456 15.3248 47.1934 15.3038 46.8432 15.2625C48.864 16.5519 51.2131 17.234 53.6107 17.2275C61.7529 17.2275 66.2011 10.6012 66.2011 4.85421C66.2011 4.66578 66.1962 4.47736 66.1872 4.29342C67.0506 3.67971 67.7975 2.91706 68.3929 2.04128Z" fill="#1C1F35"/>
<path fill-rule="evenodd" clip-rule="evenodd" d="M116.569 10.8111C116.569 4.84084 111.4 0 105.026 0C98.6524 0 93.4842 4.84084 93.4842 10.8111C93.4842 16.2069 97.7043 20.6795 103.223 21.4913V13.9371L100.292 13.9371V10.8111L103.223 10.8111V8.42924C103.223 5.7202 104.946 4.22258 107.583 4.22258C108.846 4.22258 110.167 4.43398 110.167 4.43398V7.09475L108.711 7.09475C107.278 7.09475 106.829 7.92778 106.829 8.78398V10.8111L110.03 10.8111L109.519 13.9371L106.83 13.9371L106.83 21.4923C112.348 20.681 116.569 16.2084 116.569 10.8111Z" fill="#1C1F35"/>
<path d="M157.484 1.79125C158.718 1.7948 159.899 2.26781 160.771 3.107C161.644 3.94618 162.135 5.08333 162.139 6.27011V15.2269C162.135 16.4136 161.644 17.5508 160.771 18.39C159.899 19.2292 158.718 19.7022 157.484 19.7057L148.176 19.7057C146.943 19.7022 145.761 19.2292 144.889 18.39C144.017 17.5508 143.526 16.4136 143.522 15.2269V6.27011C143.526 5.08333 144.017 3.94618 144.889 3.107C145.761 2.26781 146.943 1.7948 148.176 1.79125L157.484 1.79125ZM157.484 0L148.176 0C144.593 0 141.661 2.82148 141.661 6.27011L141.661 15.2269C141.661 18.6755 144.593 21.497 148.176 21.497L157.484 21.497C161.068 21.497 164 18.6755 164 15.2269L164 6.27011C164 2.82148 161.068 0 157.484 0Z" fill="#1C1F35"/>
<path d="M158.881 6.27051C158.605 6.27051 158.335 6.19171 158.105 6.04408C157.876 5.89644 157.697 5.68661 157.591 5.44111C157.485 5.1956 157.458 4.92546 157.512 4.66483C157.565 4.40421 157.698 4.16481 157.894 3.97691C158.089 3.78901 158.338 3.66104 158.609 3.6092C158.879 3.55736 159.16 3.58397 159.415 3.68566C159.67 3.78735 159.888 3.95956 160.042 4.1805C160.195 4.40145 160.277 4.66122 160.277 4.92695C160.278 5.10349 160.242 5.27837 160.172 5.44155C160.102 5.60473 159.999 5.753 159.869 5.87783C159.739 6.00267 159.585 6.10162 159.416 6.16901C159.246 6.23639 159.064 6.27089 158.881 6.27051ZM152.831 7.16589C153.567 7.16589 154.287 7.37603 154.899 7.76974C155.512 8.16344 155.989 8.72303 156.271 9.37773C156.553 10.0324 156.626 10.7529 156.483 11.4479C156.339 12.1429 155.984 12.7813 155.464 13.2824C154.943 13.7835 154.279 14.1248 153.557 14.263C152.835 14.4013 152.086 14.3303 151.406 14.0591C150.726 13.7879 150.144 13.3287 149.735 12.7395C149.326 12.1503 149.107 11.4575 149.107 10.7489C149.108 9.79893 149.501 8.88817 150.199 8.21645C150.897 7.54473 151.844 7.16691 152.831 7.16589ZM152.831 5.37464C151.726 5.37464 150.646 5.68983 149.728 6.28036C148.81 6.87089 148.094 7.71023 147.671 8.69225C147.248 9.67426 147.138 10.7548 147.353 11.7973C147.569 12.8398 148.101 13.7974 148.882 14.549C149.663 15.3006 150.658 15.8125 151.741 16.0199C152.825 16.2272 153.948 16.1208 154.968 15.714C155.989 15.3073 156.861 14.6184 157.475 13.7347C158.088 12.8509 158.416 11.8118 158.416 10.7489C158.416 9.32354 157.827 7.95659 156.78 6.94872C155.733 5.94085 154.312 5.37464 152.831 5.37464Z" fill="#1C1F35"/>
</svg>
