<svg width="52" height="56" viewBox="0 0 52 56" fill="none" xmlns="http://www.w3.org/2000/svg">
<path d="M25.9448 7.24456V1.01111" stroke="#1C1F35" stroke-width="2" stroke-linecap="round" stroke-linejoin="round"/>
<path d="M50.8787 36.3338C47.0867 49.5799 29.5291 54.203 26.4124 54.9303C26.1056 55.0083 25.7842 55.0083 25.4774 54.9303C22.3607 54.203 4.80313 49.5799 1.01111 36.3338V27.4511C1.01108 27.0136 1.14915 26.5873 1.40566 26.2328C1.66216 25.8784 2.024 25.6139 2.43961 25.4772L25.2956 17.8412C25.7187 17.711 26.1711 17.711 26.5942 17.8412L49.4502 25.4772C49.8658 25.6139 50.2277 25.8784 50.4842 26.2328C50.7407 26.5873 50.8787 27.0136 50.8787 27.4511V36.3338Z" stroke="#1C1F35" stroke-width="2" stroke-linecap="round" stroke-linejoin="round"/>
<path d="M26.4179 48.1948C23.952 47.6271 10.0607 44.0179 7.06051 33.6768" stroke="#1C1F35" stroke-width="2" stroke-linecap="round" stroke-linejoin="round"/>
<path d="M7.06051 10.0936V23.3931L25.813 16.739L44.5655 23.3931V10.0936C44.5655 8.41834 43.2075 7.06026 41.5322 7.06026H10.0938C8.41858 7.06026 7.06051 8.41833 7.06051 10.0936Z" fill="#FFD550" stroke="#1C1F35" stroke-width="2"/>
<path d="M25.9448 38.4119V17.7377" stroke="#1C1F35" stroke-width="2" stroke-linecap="round" stroke-linejoin="round"/>
<path d="M31.2571 37.3063L31.2571 28.8375" stroke="#1C1F35" stroke-width="2" stroke-linecap="round" stroke-linejoin="round"/>
<path d="M11.8998 17.9488V11.8996" stroke="#1C1F35" stroke-width="2" stroke-linecap="round" stroke-linejoin="round"/>
<path d="M49.4048 20.3685V9.47992" stroke="#1C1F35" stroke-width="2" stroke-linecap="round" stroke-linejoin="round"/>
</svg>
