<svg width="118" height="22" viewBox="0 0 118 22" fill="none" xmlns="http://www.w3.org/2000/svg">
<path d="M21.7048 2.05598C20.8907 2.40949 20.0292 2.64239 19.1477 2.74732C20.0741 2.20526 20.7708 1.3441 21.1071 0.325347C20.2312 0.837121 19.2746 1.19621 18.2782 1.38722C17.8586 0.9478 17.354 0.598228 16.795 0.359754C16.236 0.121281 15.6343 -0.00111489 15.0265 7.652e-06C12.5657 7.652e-06 10.5743 1.96108 10.5743 4.37854C10.5726 4.7148 10.6111 5.05006 10.6892 5.37715C8.92462 5.29449 7.19675 4.84467 5.61612 4.05648C4.03549 3.26829 2.63691 2.15907 1.50984 0.799802C1.11444 1.4659 0.905333 2.22589 0.904368 3.00036C0.904368 4.51862 1.69705 5.86065 2.89398 6.64688C2.18483 6.63007 1.49021 6.44251 0.869098 6.10013L0.869098 6.15435C0.869098 8.2781 2.40652 10.0449 4.44135 10.447C4.05871 10.549 3.6644 10.6006 3.26839 10.6007C2.98739 10.6012 2.70703 10.5739 2.43139 10.5193C2.99708 12.259 4.64348 13.5242 6.59375 13.5604C5.00902 14.7808 3.06338 15.4404 1.06263 15.4356C0.707496 15.4351 0.352688 15.4139 0 15.3723C2.03536 16.6711 4.40131 17.358 6.81623 17.3515C15.017 17.3515 19.4973 10.6775 19.4973 4.88914C19.4973 4.69936 19.4923 4.50958 19.4833 4.32432C20.3529 3.7062 21.1052 2.93806 21.7048 2.05598Z" fill="#1C1F35"/>
<path fill-rule="evenodd" clip-rule="evenodd" d="M70.2271 10.8889C70.2271 4.87568 65.0217 0 58.6019 0C52.1821 0 46.9767 4.87568 46.9767 10.8889C46.9767 16.3236 51.2272 20.8283 56.7855 21.646L56.7855 14.0374L53.833 14.0374V10.8889L56.7855 10.8889V8.48991C56.7855 5.76137 58.5215 4.25297 61.1766 4.25297C62.4486 4.25297 63.7793 4.46589 63.7793 4.46589L63.7793 7.14581L62.3127 7.14581C60.8694 7.14581 60.4178 7.98484 60.4178 8.8472V10.8889L63.6418 10.8889L63.1269 14.0374L60.4184 14.0374L60.4184 21.647C65.9767 20.8298 70.2271 16.325 70.2271 10.8889Z" fill="#1C1F35"/>
<path d="M111.437 1.80415C112.68 1.80772 113.87 2.28414 114.748 3.12936C115.627 3.97458 116.122 5.11992 116.125 6.31524L116.125 15.3364C116.122 16.5318 115.627 17.6771 114.748 18.5223C113.87 19.3675 112.68 19.844 111.437 19.8475L102.063 19.8475C100.82 19.844 99.6301 19.3675 98.7518 18.5223C97.8734 17.6771 97.3783 16.5318 97.3746 15.3364V6.31524C97.3783 5.11992 97.8734 3.97458 98.7518 3.12936C99.6301 2.28414 100.82 1.80772 102.063 1.80415L111.437 1.80415ZM111.437 0L102.063 0C98.4529 0 95.4997 2.84178 95.4997 6.31524V15.3364C95.4997 18.8099 98.4529 21.6517 102.063 21.6517L111.437 21.6517C115.047 21.6517 118 18.8099 118 15.3364L118 6.31524C118 2.84178 115.047 0 111.437 0Z" fill="#1C1F35"/>
<path d="M112.844 6.31564C112.566 6.31564 112.294 6.23627 112.063 6.08758C111.832 5.93888 111.651 5.72754 111.545 5.48027C111.438 5.23299 111.411 4.96091 111.465 4.6984C111.519 4.4359 111.653 4.19478 111.85 4.00553C112.046 3.81628 112.297 3.68739 112.57 3.63518C112.843 3.58296 113.125 3.60976 113.382 3.71219C113.639 3.81461 113.859 3.98805 114.013 4.21059C114.168 4.43313 114.25 4.69476 114.25 4.96241C114.251 5.14022 114.215 5.31636 114.144 5.48072C114.074 5.64507 113.97 5.7944 113.839 5.92014C113.709 6.04587 113.554 6.14554 113.383 6.21341C113.212 6.28128 113.029 6.31602 112.844 6.31564ZM106.75 7.21747C107.492 7.21747 108.217 7.42912 108.834 7.82566C109.451 8.22219 109.931 8.78581 110.215 9.44523C110.499 10.1046 110.573 10.8302 110.429 11.5303C110.284 12.2303 109.927 12.8733 109.402 13.378C108.878 13.8827 108.21 14.2264 107.482 14.3657C106.755 14.5049 106.001 14.4335 105.315 14.1603C104.63 13.8872 104.044 13.4246 103.632 12.8312C103.22 12.2377 103 11.54 103 10.8262C103.001 9.86945 103.397 8.95214 104.1 8.27558C104.803 7.59903 105.756 7.21849 106.75 7.21747ZM106.75 5.41332C105.638 5.41332 104.55 5.73078 103.625 6.32556C102.7 6.92034 101.979 7.76573 101.553 8.75481C101.128 9.74389 101.016 10.8322 101.233 11.8823C101.45 12.9323 101.986 13.8967 102.773 14.6538C103.56 15.4108 104.562 15.9263 105.653 16.1352C106.744 16.344 107.875 16.2368 108.903 15.8271C109.931 15.4174 110.809 14.7237 111.428 13.8335C112.046 12.9434 112.376 11.8968 112.376 10.8262C112.376 9.39065 111.783 8.01385 110.728 6.99873C109.673 5.98361 108.242 5.41332 106.75 5.41332Z" fill="#1C1F35"/>
</svg>
