<svg width="71" height="22" viewBox="0 0 71 22" fill="none" xmlns="http://www.w3.org/2000/svg">
<path fill-rule="evenodd" clip-rule="evenodd" d="M23.2428 10.8853C23.2428 4.87408 18.0391 0 11.6214 0C5.20369 0 0 4.87408 0 10.8853C0 16.3182 4.24908 20.8215 9.80556 21.6389L9.80556 14.0328L6.85403 14.0328L6.85403 10.8853L9.80556 10.8853L9.80556 8.48712C9.80556 5.75948 11.541 4.25158 14.1952 4.25158C15.4668 4.25158 16.7971 4.46443 16.7971 4.46443L16.7971 7.14347L15.3309 7.14347C13.8881 7.14347 13.4367 7.98222 13.4367 8.8443L13.4367 10.8853L16.6596 10.8853L16.1449 14.0328L13.4372 14.0328L13.4372 21.6399C18.9937 20.823 23.2428 16.3197 23.2428 10.8853Z" fill="#1C1F35"/>
<path d="M64.4396 1.80355C65.6814 1.80712 66.8712 2.28339 67.7493 3.12833C68.6273 3.97327 69.1223 5.11824 69.126 6.31317L69.126 15.3314C69.1223 16.5263 68.6273 17.6713 67.7493 18.5163C66.8712 19.3612 65.6814 19.8375 64.4396 19.841L55.0678 19.841C53.826 19.8375 52.6362 19.3612 51.7581 18.5163C50.88 17.6713 50.3851 16.5263 50.3814 15.3314L50.3814 6.31317C50.3851 5.11824 50.88 3.97327 51.7581 3.12833C52.6362 2.28339 53.826 1.80712 55.0678 1.80355L64.4396 1.80355ZM64.4396 0L55.0678 0C51.4593 0 48.5071 2.84085 48.5071 6.31317L48.5071 15.3314C48.5071 18.8037 51.4593 21.6446 55.0678 21.6446L64.4396 21.6446C68.048 21.6446 71.0002 18.8037 71.0002 15.3314V6.31317C71.0002 2.84085 68.048 0 64.4396 0Z" fill="#1C1F35"/>
<path d="M65.8458 6.31357C65.5678 6.31357 65.296 6.23423 65.0648 6.08558C64.8336 5.93693 64.6534 5.72566 64.547 5.47847C64.4406 5.23128 64.4128 4.95928 64.467 4.69686C64.5213 4.43445 64.6552 4.19341 64.8518 4.00421C65.0484 3.81502 65.2989 3.68618 65.5716 3.63399C65.8443 3.58179 66.1269 3.60858 66.3838 3.71097C66.6407 3.81336 66.8603 3.98675 67.0147 4.20921C67.1692 4.43168 67.2517 4.69322 67.2517 4.96078C67.252 5.13854 67.216 5.31462 67.1454 5.47892C67.0749 5.64322 66.9714 5.7925 66.8408 5.9182C66.7102 6.04389 66.555 6.14352 66.3843 6.21137C66.2135 6.27922 66.0306 6.31395 65.8458 6.31357ZM59.7541 7.2151C60.4956 7.2151 61.2204 7.42668 61.837 7.82309C62.4535 8.2195 62.934 8.78293 63.2178 9.44213C63.5015 10.1013 63.5758 10.8267 63.4311 11.5265C63.2864 12.2263 62.9294 12.8691 62.4051 13.3736C61.8808 13.8782 61.2127 14.2218 60.4855 14.361C59.7583 14.5002 59.0045 14.4287 58.3194 14.1557C57.6344 13.8826 57.0489 13.4202 56.6369 12.827C56.225 12.2337 56.0051 11.5362 56.0051 10.8227C56.0062 9.86621 56.4015 8.9492 57.1043 8.27287C57.8072 7.59654 58.7601 7.21612 59.7541 7.2151ZM59.7541 5.41155C58.6419 5.41155 57.5547 5.72891 56.63 6.32349C55.7052 6.91807 54.9845 7.76318 54.5589 8.75194C54.1333 9.74069 54.0219 10.8287 54.2389 11.8784C54.4559 12.928 54.9914 13.8922 55.7778 14.649C56.5643 15.4057 57.5663 15.9211 58.6571 16.1299C59.7479 16.3387 60.8785 16.2315 61.906 15.8219C62.9336 15.4124 63.8118 14.7188 64.4297 13.829C65.0476 12.9391 65.3774 11.8929 65.3774 10.8227C65.3774 9.38757 64.7849 8.01122 63.7304 6.99644C62.6758 5.98165 61.2455 5.41155 59.7541 5.41155Z" fill="#1C1F35"/>
</svg>
