<svg width="49" height="50" viewBox="0 0 49 50" fill="none" xmlns="http://www.w3.org/2000/svg">
<path d="M25.5117 38.7693C27.1618 39.8981 29.0278 40.6697 30.9909 41.0349C32.954 41.4001 34.9713 41.351 36.9145 40.8907C38.8577 40.4303 40.6843 39.5689 42.278 38.361C43.8717 37.1532 45.1977 35.6255 46.1717 33.875C47.1457 32.1245 47.7463 30.1896 47.9353 28.1933C48.1244 26.1971 47.8978 24.1831 47.2698 22.2796C46.6419 20.3761 45.6264 18.6247 44.288 17.1367C42.9496 15.6488 41.3175 14.4569 39.4955 13.6368C39.0955 13.4348 38.7776 13.0996 38.5962 12.6884C37.4307 9.89962 35.4711 7.51864 32.9634 5.84424C30.4556 4.16985 27.5113 3.27661 24.5 3.27661C21.4887 3.27661 18.5444 4.16985 16.0366 5.84424C13.5289 7.51864 11.5693 9.89962 10.4038 12.6884C10.2224 13.0996 9.90453 13.4348 9.50447 13.6368C7.68253 14.4569 6.05045 15.6488 4.71202 17.1367C3.37359 18.6247 2.35812 20.3761 1.73018 22.2796C1.10225 24.1831 0.875601 26.1971 1.06465 28.1933C1.25371 30.1896 1.85432 32.1245 2.8283 33.875C3.80227 35.6255 5.12829 37.1532 6.72202 38.361C8.31574 39.5689 10.1423 40.4303 12.0855 40.8907C14.0287 41.351 16.046 41.4001 18.0091 41.0349C19.9722 40.6697 21.8382 39.8981 23.4883 38.7693C23.7888 38.5711 24.1405 38.4655 24.5 38.4655C24.8595 38.4655 25.2112 38.5711 25.5117 38.7693Z" fill="#FFD550" stroke="#1C1F35" stroke-width="2" stroke-linecap="round" stroke-linejoin="round"/>
<path d="M42.5533 28.9191C41.4129 31.7673 38.6091 36.5334 30.9355 36.5334" stroke="#1C1F35" stroke-width="2" stroke-linecap="round" stroke-linejoin="round"/>
<path d="M6.88031 9.75504C8.18284 6.78047 11.2221 2.5311 17.8398 1.00024" stroke="#1C1F35" stroke-width="2" stroke-linecap="round" stroke-linejoin="round"/>
<path d="M24.8623 48.9429V17.7463" stroke="#1C1F35" stroke-width="2" stroke-linecap="round" stroke-linejoin="round"/>
<path d="M24.8622 31.6118L14.2373 26.4124" stroke="#1C1F35" stroke-width="2" stroke-linecap="round" stroke-linejoin="round"/>
<path d="M15.1228 23.3904L18.5869 25.3479" stroke="white" stroke-linecap="round" stroke-linejoin="round"/>
<path d="M21.7744 17.4584L21.7744 21.3733" stroke="#1C1F35" stroke-linecap="round" stroke-linejoin="round"/>
<path d="M27.5654 42.2766L27.5654 47.2766" stroke="#1C1F35" stroke-width="1.5" stroke-linecap="round" stroke-linejoin="round"/>
<path d="M24.8623 26.4126L35.4872 21.2131" stroke="#1C1F35" stroke-width="2" stroke-linecap="round" stroke-linejoin="round"/>
</svg>
