<svg width="56" height="58" viewBox="0 0 56 58" fill="none" xmlns="http://www.w3.org/2000/svg">
<path d="M24.917 28.3483C32.468 28.3483 38.5893 22.2269 38.5893 14.6759C38.5893 7.12493 32.468 1.00362 24.917 1.00362C17.366 1.00362 11.2447 7.12493 11.2447 14.6759C11.2447 22.2269 17.366 28.3483 24.917 28.3483Z" fill="#FFD550" stroke="#1C1F35" stroke-width="2" stroke-linecap="round" stroke-linejoin="round"/>
<path d="M5.36605 37.4632C7.76157 34.6081 10.7533 32.3123 14.1311 30.7371C17.5088 29.162 21.1905 28.3457 24.9175 28.3457C28.6444 28.3457 32.3261 29.162 35.7039 30.7371C39.0816 32.3123 42.0734 34.6081 44.4689 37.4632" stroke="#1C1F35" stroke-width="2" stroke-linecap="round" stroke-linejoin="round"/>
<path d="M52.0796 38.6022L41.8254 38.6022L41.8254 20.3725L52.0796 20.3725L52.0796 38.6022Z" fill="white" stroke="#141414" stroke-linecap="round" stroke-linejoin="round"/>
<path d="M52.0796 27.2088L41.8254 27.2088L41.8254 20.3727L52.0796 20.3727L52.0796 27.2088Z" fill="#FFD550" stroke="black" stroke-linecap="round" stroke-linejoin="round"/>
<path d="M48.662 24.9301L45.2439 24.9301" stroke="#141414" stroke-linecap="round" stroke-linejoin="round"/>
<path d="M48.662 30.6264L45.2439 30.6264" stroke="#141414" stroke-linecap="round" stroke-linejoin="round"/>
<path d="M55.4982 28.3482L55.4982 38.0405" stroke="#1C1F35" stroke-linecap="round" stroke-linejoin="round"/>
<path d="M6.7442 22.0596C5.86529 20.9013 3.69881 17.047 5.37487 9.80591" stroke="#1C1F35" stroke-width="1.5" stroke-linecap="round" stroke-linejoin="round"/>
<path d="M35.3723 16.0937C35.3238 17.2583 34.6802 20.7546 29.8156 24.4513" stroke="#1C1F35" stroke-linecap="round" stroke-linejoin="round"/>
</svg>
