<svg width="51" height="52" viewBox="0 0 51 52" fill="none" xmlns="http://www.w3.org/2000/svg">
<path d="M25.5 0L26.9838 17.4784L34.3561 1.56157L29.7724 18.4934L42.144 6.05791L32.0457 20.4009L47.9244 12.9467L33.5295 22.9709L51.0001 21.3971L34.0448 25.8934L51.0001 30.3898L33.5295 28.816L47.9244 38.8402L32.0457 31.386L42.144 45.729L29.7724 33.2935L34.3561 50.2253L26.9838 34.3085L25.5 51.7869L24.0162 34.3085L16.6439 50.2253L21.2276 33.2935L8.85601 45.729L18.9543 31.386L3.07562 38.8402L17.4705 28.816L-6.50738e-05 30.3898L16.9552 25.8934L-6.50738e-05 21.3971L17.4705 22.9709L3.07562 12.9467L18.9543 20.4009L8.85601 6.05791L21.2276 18.4934L16.6439 1.56157L24.0162 17.4784L25.5 0Z" fill="white"/>
</svg>
