<svg width="87" height="39" viewBox="0 0 87 39" fill="none" xmlns="http://www.w3.org/2000/svg">
<path d="M12.7237 0H16.6531V38.7948H11.9752L3.92938 8.73195V38.7948H0V0H4.98968L12.7237 29.0025V0Z" fill="#091242"/>
<path d="M24.3842 0H30.746C34.0309 0 35.6733 1.64244 35.6733 4.92731V33.8675C35.6733 37.1524 34.0309 38.7948 30.746 38.7948H24.3842C21.0993 38.7948 19.4568 37.1524 19.4568 33.8675V4.92731C19.4568 1.64244 21.0993 0 24.3842 0ZM31.4321 33.1814V5.6134C31.4321 4.78178 31.3073 4.26202 31.0579 4.05412C30.8084 3.80463 30.2886 3.67989 29.4986 3.67989H25.6316C24.8415 3.67989 24.3218 3.80463 24.0723 4.05412C23.8228 4.26202 23.6981 4.78178 23.6981 5.6134V33.1814C23.6981 34.013 23.8228 34.5536 24.0723 34.8031C24.3218 35.011 24.8415 35.1149 25.6316 35.1149H29.4986C30.2886 35.1149 30.8084 35.011 31.0579 34.8031C31.3073 34.5536 31.4321 34.013 31.4321 33.1814Z" fill="#091242"/>
<path d="M42.7432 22.5783V38.7948H38.5019V0H49.7911C53.076 0 54.7184 1.64244 54.7184 4.92731V17.651C54.7184 20.6032 53.4294 22.2249 50.8514 22.516L56.7143 38.7948H52.0988L46.4231 22.5783H42.7432ZM42.7432 3.67989V18.8984H48.5437C49.3753 18.8984 49.8951 18.7945 50.103 18.5866C50.3525 18.3371 50.4772 17.7965 50.4772 16.9649V5.6134C50.4772 4.78178 50.3525 4.26202 50.103 4.05412C49.8951 3.80463 49.3753 3.67989 48.5437 3.67989H42.7432Z" fill="#091242"/>
<path d="M71.0757 0V3.67989H64.8386V38.7948H60.5974V3.67989H54.3603V0H71.0757Z" fill="#091242"/>
<path d="M75.7112 0H82.073C85.3579 0 87.0003 1.64244 87.0003 4.92731V33.8675C87.0003 37.1524 85.3579 38.7948 82.073 38.7948H75.7112C72.4263 38.7948 70.7838 37.1524 70.7838 33.8675V4.92731C70.7838 1.64244 72.4263 0 75.7112 0ZM82.7591 33.1814V5.6134C82.7591 4.78178 82.6343 4.26202 82.3849 4.05412C82.1354 3.80463 81.6156 3.67989 80.8256 3.67989H76.9586C76.1685 3.67989 75.6488 3.80463 75.3993 4.05412C75.1498 4.26202 75.0251 4.78178 75.0251 5.6134V33.1814C75.0251 34.013 75.1498 34.5536 75.3993 34.8031C75.6488 35.011 76.1685 35.1149 76.9586 35.1149H80.8256C81.6156 35.1149 82.1354 35.011 82.3849 34.8031C82.6343 34.5536 82.7591 34.013 82.7591 33.1814Z" fill="#091242"/>
</svg>
