<svg width="74" height="56" viewBox="0 0 74 56" fill="none" xmlns="http://www.w3.org/2000/svg">
<path d="M17.1953 43.3777H52.8259" stroke="#1C1F35" stroke-width="2" stroke-linecap="round" stroke-linejoin="round"/>
<path d="M34.1113 28.5188L49.5299 19.2362" stroke="#1C1F35" stroke-width="2" stroke-linecap="round" stroke-linejoin="round"/>
<path d="M9.6377 25.9482L15.6128 31.9234" stroke="#1C1F35" stroke-width="2" stroke-linecap="round" stroke-linejoin="round"/>
<path d="M1 23.7891L6.97512 29.7642" stroke="#1C1F35" stroke-width="2" stroke-linecap="round" stroke-linejoin="round"/>
<path d="M15.6697 23.5191L25.0642 32.5308C26.3169 33.7338 27.9151 34.4905 29.6212 34.6882C31.3273 34.886 33.0501 34.5144 34.5335 33.6286L72.261 11.1631L67.626 5.34255C66.4203 3.83397 64.7277 2.81692 62.854 2.47514C60.9803 2.13336 59.0491 2.48941 57.4092 3.47895L46.3451 10.142L31.3937 5.03621L27.282 6.84876C26.9744 6.98381 26.7049 7.19603 26.4984 7.46585C26.2919 7.73566 26.1551 8.05439 26.1005 8.39265C26.0459 8.73092 26.0752 9.07782 26.1859 9.40138C26.2966 9.72495 26.485 10.0148 26.7338 10.2441L34.384 17.2901L27.4066 21.3747L20.4293 18.3112L16.2429 20.1493C15.9383 20.2833 15.6711 20.4931 15.4656 20.7595C15.2601 21.0259 15.1226 21.3407 15.0657 21.6752C15.0088 22.0098 15.0343 22.3536 15.1397 22.6756C15.2452 22.9975 15.4273 23.2874 15.6697 23.5191V23.5191Z" stroke="#1C1F35" stroke-width="2" stroke-linecap="round" stroke-linejoin="round"/>
<path d="M68.4818 6.66756C62.492 11.3721 56.5793 11.9633 52.2861 6.66756L55.6594 4.47491C59.8514 1.75015 65.4335 2.7047 68.4818 6.66756Z" fill="#FFD550" stroke="#1C1F35" stroke-width="2"/>
</svg>
