<svg width="51" height="52" viewBox="0 0 51 52" fill="none" xmlns="http://www.w3.org/2000/svg">
<path d="M25.5001 0L26.9839 17.4782L34.3561 1.56154L29.7725 18.4931L42.1439 6.05783L32.0458 20.4006L47.9242 12.9465L33.5295 22.9706L50.9998 21.3968L34.0448 25.8931L50.9998 30.3894L33.5295 28.8155L47.9242 38.8396L32.0458 31.3855L42.1439 45.7283L29.7725 33.293L34.3561 50.2246L26.9839 34.308L25.5001 51.7861L24.0163 34.308L16.6442 50.2246L21.2278 33.293L8.85638 45.7283L18.9545 31.3855L3.07606 38.8396L17.4707 28.8155L0.000424888 30.3894L16.9554 25.8931L0.000424888 21.3968L17.4707 22.9706L3.07606 12.9465L18.9545 20.4006L8.85638 6.05783L21.2278 18.4931L16.6442 1.56154L24.0163 17.4782L25.5001 0Z" fill="white"/>
</svg>
