<svg width="33" height="50" viewBox="0 0 33 50" fill="none" xmlns="http://www.w3.org/2000/svg">
<path d="M15.1145 24.9389L1.71298 14.8878C1.49523 14.7224 1.31838 14.5091 1.19609 14.2646C1.0738 14.02 1.00932 13.7506 1.00763 13.4771V5.54198C1.00763 5.07431 1.19342 4.6258 1.52411 4.2951C1.8548 3.96441 2.30332 3.77863 2.77099 3.77863H27.458C27.9257 3.77863 28.3742 3.96441 28.7049 4.2951C29.0356 4.6258 29.2214 5.07431 29.2214 5.54198V13.3889C29.2197 13.6624 29.1552 13.9318 29.0329 14.1764C28.9106 14.421 28.7338 14.6342 28.516 14.7996L15.1145 24.9389Z" fill="#FFD550" stroke="#1C1F35" stroke-width="2" stroke-linecap="round" stroke-linejoin="round"/>
<path d="M3.0229 15.8702H27.2061" stroke="#1C1F35" stroke-width="2" stroke-linecap="round" stroke-linejoin="round"/>
<path d="M15.1145 24.9389L1.71298 34.9901C1.49523 35.1555 1.31838 35.3687 1.19609 35.6133C1.0738 35.8579 1.00932 36.1273 1.00763 36.4008V44.3359C1.00763 44.8035 1.19342 45.2521 1.52411 45.5828C1.8548 45.9135 2.30332 46.0992 2.77099 46.0992H27.458C27.9257 46.0992 28.3742 45.9135 28.7049 45.5828C29.0356 45.2521 29.2214 44.8035 29.2214 44.3359V36.4889C29.2197 36.2155 29.1552 35.9461 29.0329 35.7015C28.9106 35.4569 28.7338 35.2437 28.516 35.0782L15.1145 24.9389Z" stroke="#1C1F35" stroke-width="2" stroke-linecap="round" stroke-linejoin="round"/>
<path d="M15.1145 34.0076V24.9389" stroke="#1C1F35" stroke-width="2" stroke-linecap="round" stroke-linejoin="round"/>
<path d="M32.2443 3.77863L32.2443 8.81679" stroke="#1C1F35" stroke-width="1.5" stroke-linecap="round" stroke-linejoin="round"/>
<path d="M4.03053 38.0382L4.03053 43.0763" stroke="#1C1F35" stroke-width="1.5" stroke-linecap="round" stroke-linejoin="round"/>
<path d="M16.1221 0.755725L1.00763 0.755725" stroke="#1C1F35" stroke-width="1.5" stroke-linecap="round" stroke-linejoin="round"/>
<path d="M28.2137 49.1221H13.0992" stroke="#1C1F35" stroke-width="1.5" stroke-linecap="round" stroke-linejoin="round"/>
<path d="M29.0726 31.1798L21.1603 24.9389" stroke="#1C1F35" stroke-width="1.5" stroke-linecap="round" stroke-linejoin="round"/>
<path d="M19.145 12.8473L4.03053 12.8473" stroke="white" stroke-width="1.5" stroke-linecap="round" stroke-linejoin="round"/>
</svg>
