<svg width="50" height="50" viewBox="0 0 50 50" fill="none" xmlns="http://www.w3.org/2000/svg">
<path d="M39.1819 0.999995H46.8183C47.3969 0.999995 47.9519 1.22986 48.361 1.63903C48.7702 2.0482 49.0001 2.60315 49.0001 3.1818V10.8181" stroke="#1C1F35" stroke-width="2" stroke-linecap="round" stroke-linejoin="round"/>
<path d="M39.1819 48.9998H46.8183C47.3969 48.9998 47.9519 48.77 48.361 48.3608C48.7702 47.9516 49.0001 47.3967 49.0001 46.818V39.1817" stroke="#1C1F35" stroke-width="2" stroke-linecap="round" stroke-linejoin="round"/>
<path d="M10.8181 48.9998H3.1818C2.60315 48.9998 2.0482 48.77 1.63903 48.3608C1.22986 47.9516 0.999995 47.3967 0.999995 46.818V39.1817" stroke="#1C1F35" stroke-width="2" stroke-linecap="round" stroke-linejoin="round"/>
<path d="M10.8181 0.999995H3.1818C2.60315 0.999995 2.0482 1.22986 1.63903 1.63903C1.22986 2.0482 0.999995 2.60315 0.999995 3.1818V10.8181" stroke="#1C1F35" stroke-width="2" stroke-linecap="round" stroke-linejoin="round"/>
<path d="M25.0003 29.3636C29.8203 29.3636 33.7276 25.4563 33.7276 20.6364C33.7276 15.8164 29.8203 11.9091 25.0003 11.9091C20.1804 11.9091 16.2731 15.8164 16.2731 20.6364C16.2731 25.4563 20.1804 29.3636 25.0003 29.3636Z" fill="#FFD550" stroke="#1C1F35" stroke-width="2" stroke-linecap="round" stroke-linejoin="round"/>
<path d="M10.5187 38.0908C11.9134 35.4599 13.9985 33.2586 16.5499 31.7234C19.1013 30.1882 22.0228 29.3771 25.0005 29.3771C27.9782 29.3771 30.8996 30.1882 33.4511 31.7234C36.0025 33.2586 38.0875 35.4599 39.4822 38.0908" stroke="#1C1F35" stroke-width="2" stroke-linecap="round" stroke-linejoin="round"/>
<path d="M7.95098 36.7512C8.99996 34.9998 9.99995 32.9998 12.7773 30.9405" stroke="#1C1F35" stroke-width="1.5" stroke-linecap="round" stroke-linejoin="round"/>
<path d="M31.9112 10.8678C33.4998 11.9999 35.4998 13.9999 36.4002 16.9428" stroke="#1C1F35" stroke-width="1.5" stroke-linecap="round" stroke-linejoin="round"/>
<path d="M19.5698 21.5508C18.7106 19.7558 19.7108 15.7558 23.3922 15.0357" stroke="white" stroke-width="1.5" stroke-linecap="round" stroke-linejoin="round"/>
</svg>
