<svg width="57" height="58" viewBox="0 0 57 58" fill="none" xmlns="http://www.w3.org/2000/svg">
<path d="M2.06683 45.4171H54.9333" stroke="#141414" stroke-width="2" stroke-linecap="round" stroke-linejoin="round"/>
<path d="M32.7291 45.4171V2.94004C32.7291 2.42797 32.5222 1.93687 32.154 1.57478C31.7857 1.21269 31.2863 1.00927 30.7655 1.00927H7.20215C6.68136 1.00927 6.18191 1.21269 5.81366 1.57478C5.44542 1.93687 5.23854 2.42797 5.23854 2.94004V45.4171" stroke="#141414" stroke-width="2" stroke-linecap="round" stroke-linejoin="round"/>
<path d="M32.7293 13.6973H48.7334C50.4056 13.6973 51.7612 15.0529 51.7612 16.7251V44.3598H32.7293V13.6973Z" fill="#FFD550" stroke="#141414" stroke-width="2" stroke-linecap="round" stroke-linejoin="round"/>
<path d="M13.6971 10.5251H21.0984" stroke="#141414" stroke-width="2" stroke-linecap="round" stroke-linejoin="round"/>
<path d="M1.00927 41.1878L1.00927 26.3852" stroke="#141414" stroke-width="2" stroke-linecap="round" stroke-linejoin="round"/>
<path d="M55.9907 30.6141L55.9907 15.8115" stroke="#141414" stroke-width="2" stroke-linecap="round" stroke-linejoin="round"/>
<path d="M35.901 9.4678L43.3023 9.4678" stroke="#141414" stroke-width="2" stroke-linecap="round" stroke-linejoin="round"/>
<path d="M16.8698 26.3849H24.2711" stroke="#141414" stroke-width="2" stroke-linecap="round" stroke-linejoin="round"/>
<path d="M13.6971 35.9012H21.0984" stroke="#141414" stroke-width="2" stroke-linecap="round" stroke-linejoin="round"/>
<path d="M40.1302 35.9012H44.3596" stroke="#141414" stroke-width="2" stroke-linecap="round" stroke-linejoin="round"/>
<path d="M40.1302 26.3849H44.3596" stroke="#141414" stroke-width="2" stroke-linecap="round" stroke-linejoin="round"/>
</svg>
