<svg width="50" height="52" viewBox="0 0 50 52" fill="none" xmlns="http://www.w3.org/2000/svg">
<path d="M2.01394 20.7568V6.90931C2.01394 6.40878 2.21179 5.92876 2.56397 5.57484C2.91615 5.22092 3.3938 5.02209 3.89186 5.02209H41.4503C41.9484 5.02209 42.426 5.22092 42.7782 5.57484C43.1304 5.92876 43.3282 6.40878 43.3282 6.90931V20.7568C43.3282 40.5725 26.5912 47.1306 23.2579 48.2394C22.8793 48.3803 22.4629 48.3803 22.0842 48.2394C18.7509 47.1306 2.01394 40.5725 2.01394 20.7568Z" fill="#FFD550" stroke="#1C1F35" stroke-width="2" stroke-linecap="round" stroke-linejoin="round"/>
<path d="M18.4053 50.9946C15.4659 50.0676 8.25182 46.5665 1.2278 37.4316" stroke="#1C1F35" stroke-width="2" stroke-linecap="round" stroke-linejoin="round"/>
<path d="M32.9989 18.2324L19.2196 31.4429L12.3418 24.8377" stroke="#1C1F35" stroke-width="2" stroke-linecap="round" stroke-linejoin="round"/>
<path d="M27.6277 29.2003L22.6696 34.183" stroke="white" stroke-width="2" stroke-linecap="round" stroke-linejoin="round"/>
<path d="M48.4641 4.98259L48.4641 18.2697" stroke="#1C1F35" stroke-width="2" stroke-linecap="round" stroke-linejoin="round"/>
<path d="M21.6639 1.00501L1.00501 1.00501" stroke="#1C1F35" stroke-width="2" stroke-linecap="round" stroke-linejoin="round"/>
</svg>
