<svg width="51" height="52" viewBox="0 0 51 52" fill="none" xmlns="http://www.w3.org/2000/svg">
<path d="M25.4999 0L26.9837 17.4783L34.3559 1.56156L29.7723 18.4933L42.1438 6.05789L32.0456 20.4008L47.9242 12.9467L33.5294 22.9708L50.9998 21.397L34.0447 25.8933L50.9998 30.3896L33.5294 28.8158L47.9242 38.84L32.0456 31.3858L42.1438 45.7288L29.7723 33.2933L34.3559 50.2251L26.9837 34.3083L25.4999 51.7866L24.0161 34.3083L16.6438 50.2251L21.2275 33.2933L8.85597 45.7288L18.9542 31.3858L3.0756 38.84L17.4704 28.8158L-6.50735e-05 30.3896L16.9551 25.8933L-6.50735e-05 21.397L17.4704 22.9708L3.0756 12.9467L18.9542 20.4008L8.85597 6.05789L21.2275 18.4933L16.6438 1.56156L24.0161 17.4783L25.4999 0Z" fill="white"/>
</svg>
