<svg width="151" height="20" viewBox="0 0 151 20" fill="none" xmlns="http://www.w3.org/2000/svg">
<path d="M14.0765 1.74141C15.1736 1.74456 16.2248 2.16535 17.0006 2.91186C17.7764 3.65838 18.2137 4.66996 18.217 5.72569V13.6934C18.2137 14.7491 17.7764 15.7607 17.0006 16.5072C16.2248 17.2537 15.1736 17.6745 14.0765 17.6777H5.7964C4.69929 17.6745 3.64804 17.2537 2.87226 16.5072C2.09648 15.7607 1.6592 14.7491 1.65593 13.6934V5.72569C1.6592 4.66996 2.09648 3.65838 2.87226 2.91186C3.64804 2.16535 4.69929 1.74456 5.7964 1.74141H14.0765ZM14.0765 0.147955H5.7964C2.60832 0.147955 0 2.65787 0 5.72569V13.6934C0 16.7612 2.60832 19.2711 5.7964 19.2711H14.0765C17.2646 19.2711 19.8729 16.7612 19.8729 13.6934V5.72569C19.8729 2.65787 17.2646 0.147955 14.0765 0.147955Z" fill="white"/>
<path d="M15.3183 5.72598C15.0726 5.72598 14.8325 5.65588 14.6282 5.52455C14.424 5.39322 14.2648 5.20655 14.1708 4.98816C14.0768 4.76977 14.0522 4.52945 14.1001 4.29761C14.148 4.06576 14.2663 3.8528 14.44 3.68564C14.6137 3.51849 14.835 3.40466 15.076 3.35854C15.3169 3.31243 15.5666 3.3361 15.7936 3.42656C16.0205 3.51702 16.2145 3.67021 16.351 3.86676C16.4875 4.06331 16.5603 4.29439 16.5603 4.53078C16.5607 4.68783 16.5288 4.8434 16.4665 4.98856C16.4042 5.13372 16.3127 5.26561 16.1973 5.37666C16.0819 5.48772 15.9449 5.57574 15.794 5.63568C15.6432 5.69563 15.4815 5.72631 15.3183 5.72598ZM9.93619 6.52249C10.5913 6.52249 11.2317 6.70943 11.7764 7.05965C12.3211 7.40988 12.7456 7.90768 12.9963 8.49009C13.247 9.0725 13.3126 9.71336 13.1848 10.3316C13.057 10.9499 12.7416 11.5179 12.2783 11.9636C11.8151 12.4094 11.2249 12.7129 10.5824 12.8359C9.93986 12.9589 9.27387 12.8958 8.66863 12.6545C8.06339 12.4133 7.54608 12.0048 7.18212 11.4806C6.81816 10.9565 6.62389 10.3402 6.62389 9.70983C6.62483 8.86477 6.97411 8.05459 7.59508 7.45704C8.21605 6.85949 9.058 6.52339 9.93619 6.52249ZM9.93619 4.92904C8.95357 4.92904 7.99301 5.20942 7.17599 5.73474C6.35897 6.26006 5.72218 7.00672 5.34615 7.8803C4.97012 8.75387 4.87173 9.71513 5.06343 10.6425C5.25513 11.5699 5.72831 12.4218 6.42313 13.0904C7.11794 13.759 8.0032 14.2143 8.96694 14.3988C9.93068 14.5832 10.9296 14.4886 11.8374 14.1267C12.7453 13.7649 13.5212 13.1521 14.0671 12.3659C14.613 11.5797 14.9044 10.6554 14.9044 9.70983C14.9044 8.44188 14.381 7.22587 13.4492 6.3293C12.5175 5.43272 11.2538 4.92904 9.93619 4.92904Z" fill="white"/>
<path fill-rule="evenodd" clip-rule="evenodd" d="M64.409 9.76715C64.409 4.4562 59.8115 0.149908 54.1414 0.149908C48.4713 0.149908 43.8738 4.4562 43.8738 9.76715C43.8738 14.5672 47.6279 18.5459 52.5371 19.268V12.548H49.9294V9.76715H52.5371V7.64835C52.5371 5.23846 54.0703 3.90622 56.4154 3.90622C57.5389 3.90622 58.7141 4.09427 58.7141 4.09427V6.46123H57.4188C56.144 6.46123 55.7452 7.20227 55.7452 7.96392V9.76715H58.5927L58.138 12.548H55.7457V19.2689C60.6549 18.5472 64.409 14.5685 64.409 9.76715Z" fill="white"/>
<path d="M107.58 3.86283C106.861 4.17506 106.1 4.38077 105.321 4.47344C106.14 3.99468 106.755 3.23409 107.052 2.33431C106.278 2.78632 105.433 3.10347 104.553 3.27217C104.183 2.88407 103.737 2.57532 103.243 2.3647C102.75 2.15407 102.218 2.04597 101.681 2.04696C99.508 2.04696 97.7491 3.77902 97.7491 5.91416C97.7476 6.21116 97.7816 6.50726 97.8506 6.79616C96.2921 6.72315 94.766 6.32586 93.3699 5.62971C91.9739 4.93357 90.7386 3.95389 89.7432 2.75335C89.394 3.34166 89.2093 4.01291 89.2084 4.69693C89.2084 6.03788 89.9085 7.22319 90.9657 7.91761C90.3394 7.90275 89.7259 7.7371 89.1773 7.43471V7.4826C89.1773 9.35833 90.5352 10.9188 92.3324 11.274C91.9944 11.364 91.6461 11.4096 91.2964 11.4097C91.0482 11.4101 90.8006 11.386 90.5571 11.3378C91.0568 12.8743 92.5109 13.9918 94.2334 14.0237C92.8337 15.1016 91.1153 15.6842 89.3482 15.68C89.0346 15.6795 88.7212 15.6608 88.4097 15.6241C90.2074 16.7712 92.297 17.3779 94.4299 17.3721C101.673 17.3721 105.63 11.4775 105.63 6.36514C105.63 6.19752 105.626 6.0299 105.618 5.86627C106.386 5.32034 107.05 4.6419 107.58 3.86283Z" fill="white"/>
<path d="M149.447 0H133.241C132.355 0 131.581 0.63719 131.581 1.51235V17.7551C131.581 18.635 132.355 19.4191 133.241 19.4191H149.443C150.333 19.4191 151 18.6298 151 17.7551V1.51235C151.006 0.63719 150.333 0 149.447 0ZM137.601 16.1868H134.819V7.53704H137.601V16.1868ZM136.306 6.22192H136.286C135.396 6.22192 134.819 5.55916 134.819 4.72951C134.819 3.88469 135.411 3.23753 136.321 3.23753C137.231 3.23753 137.788 3.87992 137.808 4.72951C137.808 5.55916 137.231 6.22192 136.306 6.22192ZM147.768 16.1868H144.986V11.4573C144.986 10.3242 144.581 9.55004 143.575 9.55004C142.806 9.55004 142.351 10.0702 142.148 10.5769C142.072 10.759 142.052 11.0069 142.052 11.2601V16.1868H139.27V7.53704H142.052V8.74077C142.457 8.16426 143.089 7.33462 144.561 7.33462C146.387 7.33462 147.768 8.53834 147.768 11.1335L147.768 16.1868Z" fill="white"/>
</svg>
