<svg width="50" height="56" viewBox="0 0 50 56" fill="none" xmlns="http://www.w3.org/2000/svg">
<path d="M4.01333 18.2549L25.3776 30.2489L25.0028 53.4872L4.01333 41.4933V18.2549Z" fill="#FFD550"/>
<path d="M25.7516 4.38695L47.4907 16.7557L37.7456 22.0031L15.6317 10.0091L25.7516 4.38695Z" fill="#FFD550"/>
<path d="M48.9001 41.2597V17.7393C48.8983 17.3996 48.8069 17.0663 48.6352 16.7731C48.4635 16.48 48.2175 16.2373 47.9221 16.0695L26.9303 4.26161C26.6474 4.09831 26.3266 4.01234 26 4.01234C25.6734 4.01234 25.3525 4.09831 25.0696 4.26161L4.07784 16.0695C3.7824 16.2373 3.53643 16.48 3.36472 16.7731C3.19301 17.0663 3.10164 17.3996 3.09981 17.7393V41.2597C3.10164 41.5994 3.19301 41.9327 3.36472 42.2258C3.53643 42.519 3.7824 42.7617 4.07784 42.9295L25.0696 54.7374C25.3525 54.9007 25.6734 54.9866 26 54.9866C26.3266 54.9866 26.6474 54.9007 26.9303 54.7374L47.9221 42.9295C48.2175 42.7617 48.4635 42.519 48.6352 42.2258C48.8069 41.9327 48.8983 41.5994 48.9001 41.2597V41.2597Z" stroke="#1C1F35" stroke-width="2" stroke-linecap="round" stroke-linejoin="round"/>
<path d="M37.6886 35.3436V22.9394L14.5499 10.1773" stroke="#1C1F35" stroke-width="2" stroke-linecap="round" stroke-linejoin="round"/>
<path d="M48.6376 16.7612L26.2145 29.4994L3.36209 16.7612" stroke="#1C1F35" stroke-width="2" stroke-linecap="round" stroke-linejoin="round"/>
<path d="M26.2147 29.4994L26 54.9759" stroke="#1C1F35" stroke-width="2" stroke-linecap="round" stroke-linejoin="round"/>
<path d="M1.0141 13.246L11.7925 7.01045" stroke="#1C1F35" stroke-width="2" stroke-linecap="round" stroke-linejoin="round"/>
<path d="M30.25 1.01373L41.0339 7.23982" stroke="#1C1F35" stroke-width="2" stroke-linecap="round" stroke-linejoin="round"/>
<path d="M41.0338 42.2429L30.2499 48.469" stroke="#1C1F35" stroke-width="2" stroke-linecap="round" stroke-linejoin="round"/>
</svg>
